HIERARCHY
ROOT Hips
{
	OFFSET 0.000000 0.000000 0.000000
	CHANNELS 6 Xposition Yposition Zposition Zrotation Yrotation Xrotation 
	JOINT LeftUpLeg_virtual
	{
		OFFSET 0.000000 0.000000 0.000000
		CHANNELS 3 Zrotation Yrotation Xrotation
		JOINT LeftUpLeg
		{
			OFFSET 10.205400 -3.823500 0.155100
			CHANNELS 3 Zrotation Yrotation Xrotation
			JOINT LeftLeg
			{
				OFFSET 0.708757 -12.982077 0.567790
				CHANNELS 3 Zrotation Yrotation Xrotation
				JOINT LeftFoot
				{
					OFFSET -0.708756 -10.717838 -2.184338
					CHANNELS 3 Zrotation Yrotation Xrotation
					JOINT LeftToeBase
					{
						OFFSET 0.108149 -7.191104 7.560241
						CHANNELS 3 Zrotation Yrotation Xrotation
						End Site
						{
							OFFSET 0.000000 0.000000 0.000000
						}
					}
				}
			}
		}
	}
	JOINT RightUpLeg_virtual
	{
		OFFSET 0.000000 0.000000 0.000000
		CHANNELS 3 Zrotation Yrotation Xrotation
		JOINT RightUpLeg
		{
			OFFSET -10.205400 -3.823500 0.005500
			CHANNELS 3 Zrotation Yrotation Xrotation
			JOINT RightLeg
			{
				OFFSET -0.708756 -12.982134 0.610632
				CHANNELS 3 Zrotation Yrotation Xrotation
				JOINT RightFoot
				{
					OFFSET 0.708754 -10.717769 -1.945823
					CHANNELS 3 Zrotation Yrotation Xrotation
					JOINT RightToeBase
					{
						OFFSET -0.108140 -7.191069 7.372968
						CHANNELS 3 Zrotation Yrotation Xrotation
						End Site
						{
							OFFSET 0.000000 0.000000 0.000000
						}
					}
				}
			}
		}
	}
	JOINT Spine_virtual
	{
		OFFSET 0.000000 0.000000 0.000000
		CHANNELS 3 Zrotation Yrotation Xrotation
		JOINT Spine
		{
			OFFSET 0.000000 6.876099 0.125700
			CHANNELS 3 Zrotation Yrotation Xrotation
			JOINT Spine1
			{
				OFFSET 0.000000 8.022060 0.146608
				CHANNELS 3 Zrotation Yrotation Xrotation
				JOINT Spine2
				{
					OFFSET 0.000000 9.168068 0.167552
					CHANNELS 3 Zrotation Yrotation Xrotation
					JOINT Neck_virtual
					{
						OFFSET 0.000000 0.000000 0.000000
						CHANNELS 3 Zrotation Yrotation Xrotation
						JOINT Neck
						{
							OFFSET 0.000000 10.314075 0.188496
							CHANNELS 3 Zrotation Yrotation Xrotation
							JOINT Head
							{
								OFFSET 0.000000 7.643700 -2.377400
								CHANNELS 3 Zrotation Yrotation Xrotation
								End Site
								{
									OFFSET 0.000000 0.000000 0.000000
								}
							}
						}
					}
					JOINT LeftShoulder_virtual
					{
						OFFSET 0.000000 0.000000 0.000000
						CHANNELS 3 Zrotation Yrotation Xrotation
						JOINT LeftShoulder
						{
							OFFSET 4.392200 8.824978 0.174984
							CHANNELS 3 Zrotation Yrotation Xrotation
							JOINT LeftArm
							{
								OFFSET 8.771219 -2.981674 -0.026999
								CHANNELS 3 Zrotation Yrotation Xrotation
								JOINT LeftForeArm
								{
									OFFSET 8.512804 0.000000 -0.000000
									CHANNELS 3 Zrotation Yrotation Xrotation
									JOINT LeftHand
									{
										OFFSET 18.484802 0.000000 -0.000000
										CHANNELS 3 Zrotation Yrotation Xrotation
										End Site
										{
											OFFSET 0.000000 0.000000 0.000000
										}
									}
								}
							}
						}
					}
					JOINT RightShoulder_virtual
					{
						OFFSET 0.000000 0.000000 0.000000
						CHANNELS 3 Zrotation Yrotation Xrotation
						JOINT RightShoulder
						{
							OFFSET -4.392200 8.824993 0.141379
							CHANNELS 3 Zrotation Yrotation Xrotation
							JOINT RightArm
							{
								OFFSET -8.771282 -2.981682 -0.094208
								CHANNELS 3 Zrotation Yrotation Xrotation
								JOINT RightForeArm
								{
									OFFSET -8.494598 0.000000 0.000000
									CHANNELS 3 Zrotation Yrotation Xrotation
									JOINT RightHand
									{
										OFFSET -18.483803 0.000000 0.000001
										CHANNELS 3 Zrotation Yrotation Xrotation
										End Site
										{
											OFFSET 0.000000 0.000000 0.000000
										}
									}
								}
							}
						}
					}
				}
			}
		}
	}
}
MOTION
Frames: 9
Frame Time: 0.033333
6.659909 36.338100 16.490072 179.676923 -3.808149 -179.200887 -2.647494 -1.292926 15.023928 -3.714531 -1.743778 -19.671595 3.575591 7.642301 10.101881 3.275354 1.121857 8.360461 0.000000 0.000000 0.000000 4.858197 -0.635474 15.564200 -6.748428 -1.665381 -18.284416 -5.170446 7.538610 26.791427 11.844417 7.752089 3.761380 0.000000 0.000000 0.000000 -0.866810 1.716120 5.219865 -0.675255 -0.025020 -7.466514 1.269467 -1.850056 7.446179 0.091671 0.025531 0.030558 1.163240 0.134067 9.016569 -1.270882 -0.750440 24.122048 0.000000 0.000000 0.000000 2.977357 0.760607 5.641937 -3.663552 -0.856758 -1.843193 -58.074407 22.836618 -21.798819 -9.480570 -67.708020 9.712666 0.000000 0.000000 0.000000 -1.410553 2.108981 4.583818 8.062138 -1.672913 -6.293112 68.216146 -28.653890 -26.629224 -163.339288 73.396605 -166.554983 0.000000 0.000000 0.000000 
6.670705 36.343018 16.459730 179.923029 -3.943991 -179.206337 -2.429495 -1.288139 15.028537 -3.604764 -1.855575 -19.692769 3.632602 7.665381 10.213958 3.230576 1.078160 8.252983 0.000000 0.000000 0.000000 5.101574 -0.671722 15.558671 -6.702175 -1.864875 -18.304378 -5.093189 7.489666 26.940131 11.820652 7.766832 3.936743 0.000000 0.000000 0.000000 -0.760305 1.688540 5.178187 -0.586806 -0.108667 -7.519745 1.321352 -1.874202 7.426412 0.014738 -0.000908 0.092872 1.161598 0.191705 9.027432 -1.254559 -0.757486 24.152020 0.000000 0.000000 0.000000 2.956914 0.783060 5.604013 -3.694763 -0.852518 -1.829014 -58.112615 22.729842 -21.728205 -9.492318 -67.830691 9.724612 0.000000 0.000000 0.000000 -1.423508 2.125891 4.601901 8.058684 -1.732487 -6.387840 68.318236 -28.726198 -26.609777 -163.257094 73.344771 -166.494986 0.000000 0.000000 0.000000 
6.685414 36.350193 16.420902 179.891145 -4.033305 -179.187636 -2.508340 -1.270297 15.073101 -3.499454 -1.927183 -19.696339 3.640534 7.614175 10.236534 3.218263 1.030751 8.208989 0.000000 0.000000 0.000000 5.082327 -0.673475 15.564813 -6.804906 -1.968496 -18.187619 -4.770656 7.428541 26.894333 11.697505 7.647211 4.094176 0.000000 0.000000 0.000000 -0.818451 1.677740 5.120253 -0.603975 -0.141740 -7.590650 1.357078 -1.864482 7.404928 0.072174 0.011369 0.096907 1.145193 0.253802 9.005442 -1.181465 -0.747619 24.103116 0.000000 0.000000 0.000000 2.926814 0.872039 5.567174 -3.766020 -0.846950 -1.831142 -58.107882 22.664868 -21.616984 -9.447563 -67.900543 9.706512 0.000000 0.000000 0.000000 -1.444500 2.170882 4.574096 7.992924 -1.737053 -6.444020 68.349129 -28.623581 -26.621219 -163.410609 73.381736 -166.664457 0.000000 0.000000 0.000000 
6.703038 36.358231 16.377640 179.811027 -4.179793 -179.124826 -2.628158 -1.330555 15.086228 -3.379403 -1.896268 -19.733170 3.589678 7.450457 10.225426 3.280241 1.019944 8.153563 0.000000 0.000000 0.000000 5.025083 -0.685370 15.554525 -6.850379 -2.056546 -17.992076 -4.561919 7.368771 26.669005 11.598786 7.545178 4.192086 0.000000 0.000000 0.000000 -0.900289 1.647461 5.006760 -0.644832 -0.149594 -7.637355 1.355501 -1.856839 7.400382 0.035629 -0.017797 0.021296 1.214535 0.236668 9.002661 -1.113974 -0.737012 23.882952 0.000000 0.000000 0.000000 3.021495 0.844270 5.608066 -3.809811 -0.797146 -1.810264 -58.194509 22.788518 -21.671615 -9.412293 -67.927666 9.715760 0.000000 0.000000 0.000000 -1.337212 2.223431 4.637692 7.932585 -1.704653 -6.446532 68.320593 -28.491215 -26.305254 -163.008748 73.411816 -166.285436 0.000000 0.000000 0.000000 
6.719872 36.367489 16.333380 179.696157 -4.250240 -179.148321 -2.797430 -1.384515 15.147452 -3.274585 -1.887456 -19.679568 3.543430 7.351234 10.255349 3.330919 0.980853 8.069159 0.000000 0.000000 0.000000 4.933628 -0.723110 15.576286 -6.942223 -2.106451 -17.690183 -4.364129 7.341812 26.372786 11.504766 7.455629 4.249722 0.000000 0.000000 0.000000 -0.985926 1.648965 5.064387 -0.699698 -0.085080 -7.802147 1.383759 -1.809135 7.330092 0.110326 0.006805 0.081011 1.199047 0.273324 8.923465 -1.018214 -0.782788 24.023616 0.000000 0.000000 0.000000 2.973934 0.884118 5.532061 -3.954130 -0.805658 -1.855538 -58.233926 22.910287 -21.651227 -9.425476 -67.961537 9.765979 0.000000 0.000000 0.000000 -1.388981 2.165112 4.563920 7.859607 -1.720009 -6.465366 68.238255 -28.319646 -26.143898 -163.106092 73.459047 -166.408543 0.000000 0.000000 0.000000 
6.731717 36.375065 16.287647 179.830166 -4.302854 -179.146491 -2.737168 -1.431372 15.178437 -3.208420 -1.820842 -19.692250 3.455980 7.120496 10.350889 3.469070 1.014153 8.015667 0.000000 0.000000 0.000000 5.043461 -0.784506 15.567926 -6.906951 -2.089436 -17.369402 -4.311121 7.360889 25.980766 11.473758 7.412095 4.247557 0.000000 0.000000 0.000000 -0.862845 1.622160 5.028542 -0.677542 0.007635 -7.909013 1.373950 -1.769223 7.281514 0.017768 0.038138 0.120789 1.234877 0.288163 8.834817 -0.941485 -0.773655 23.954956 0.000000 0.000000 0.000000 3.027768 0.879888 5.435844 -4.031698 -0.788936 -1.831594 -58.288213 23.104023 -21.682104 -9.345621 -67.910631 9.744047 0.000000 0.000000 0.000000 -1.318686 2.162046 4.424502 7.809508 -1.692273 -6.414771 68.178088 -28.068423 -25.903465 -162.681678 73.559437 -165.997243 0.000000 0.000000 0.000000 
6.753208 36.381500 16.246307 179.831736 -4.371807 -179.162528 -2.722498 -1.501936 15.194333 -3.117032 -1.802005 -19.678912 3.470958 6.997242 10.485915 3.565711 1.017911 7.891604 0.000000 0.000000 0.000000 5.048221 -0.839524 15.545225 -6.900641 -2.012404 -17.025264 -4.290187 7.379330 25.574236 11.408870 7.338639 4.137519 0.000000 0.000000 0.000000 -0.825499 1.557036 5.022946 -0.684547 0.013630 -8.001438 1.380868 -1.801035 7.251375 0.013143 -0.028220 0.081190 1.237935 0.314356 8.768532 -0.838239 -0.782518 23.850121 0.000000 0.000000 0.000000 3.041224 0.907431 5.418136 -4.145543 -0.743623 -1.716782 -58.305964 23.359185 -21.789922 -9.264681 -67.893132 9.698178 0.000000 0.000000 0.000000 -1.336627 2.271503 4.371652 7.767417 -1.563572 -6.361403 68.004840 -27.839906 -25.685618 -162.870246 73.569825 -166.197750 0.000000 0.000000 0.000000 
6.780742 36.381855 16.209173 179.839017 -4.417047 -179.128077 -2.698375 -1.571883 15.190419 -3.062182 -1.857865 -19.712187 3.514980 6.926320 10.655446 3.601191 0.989061 7.832679 0.000000 0.000000 0.000000 5.079485 -0.908043 15.479968 -6.914432 -1.886127 -16.697893 -4.220268 7.373982 25.167601 11.351342 7.257425 3.947626 0.000000 0.000000 0.000000 -0.803722 1.478165 4.815940 -0.713207 0.103489 -7.955931 1.384657 -1.782333 7.288153 0.018058 -0.009246 0.052444 1.241631 0.306071 8.599446 -0.712139 -0.771944 23.718786 0.000000 0.000000 0.000000 3.025199 0.889576 5.349563 -4.233964 -0.696673 -1.785861 -58.306135 23.598642 -21.822613 -9.224405 -67.865108 9.708362 0.000000 0.000000 0.000000 -1.341885 2.216296 4.364852 7.707599 -1.537059 -6.520382 67.795365 -27.816019 -25.311195 -162.739338 73.699688 -166.078877 0.000000 0.000000 0.000000 
6.818378 36.377701 16.175013 179.718697 -4.450953 -179.232510 -2.814332 -1.642944 15.273741 -3.035259 -1.961508 -19.647454 3.558251 6.891815 10.772680 3.560523 0.908699 7.773120 0.000000 0.000000 0.000000 4.982156 -1.022174 15.465510 -6.966566 -1.764894 -16.312247 -4.136954 7.368456 24.866467 11.299374 7.164911 3.728152 0.000000 0.000000 0.000000 -0.900558 1.439512 4.994107 -0.800866 0.158417 -8.138340 1.429926 -1.793572 7.155695 0.113150 -0.004932 0.069461 1.184728 0.387284 8.672570 -0.619804 -0.802240 23.712026 0.000000 0.000000 0.000000 2.927770 0.850232 5.341502 -4.377661 -0.561857 -1.811446 -58.353824 23.848548 -21.955757 -9.359028 -67.903685 9.907658 0.000000 0.000000 0.000000 -1.396151 2.217427 4.328846 7.711423 -1.551267 -6.423184 67.702331 -27.731340 -25.045214 -162.621927 73.578937 -165.961726 0.000000 0.000000 0.000000 
